<?xml version="1.0" standalone="no"?>
<!DOCTYPE svg PUBLIC "-//W3C//DTD SVG 20010904//EN"
 "http://www.w3.org/TR/2001/REC-SVG-20010904/DTD/svg10.dtd">
<svg version="1.0" xmlns="http://www.w3.org/2000/svg"
 width="440.000000pt" height="567.000000pt" viewBox="0 0 440.000000 567.000000"
 preserveAspectRatio="xMidYMid meet">

<g transform="translate(0.000000,567.000000) scale(0.100000,-0.100000)"
fill="#000000" stroke="none">
<path d="M1590 5065 c-8 -9 -8 -15 -2 -15 12 0 26 19 19 26 -2 2 -10 -2 -17
-11z"/>
<path d="M1620 5071 c0 -6 6 -11 14 -11 17 0 64 -54 77 -89 8 -20 5 -29 -16
-50 l-26 -26 12 27 c6 14 9 38 5 52 -8 31 -49 61 -73 52 -13 -5 -10 -10 18
-24 35 -17 50 -55 31 -74 -7 -7 -15 0 -26 20 -8 16 -22 32 -31 35 -8 4 -15 13
-15 22 0 21 -17 19 -30 -4 -16 -31 -12 -75 10 -99 23 -24 41 -27 73 -11 21 10
21 9 -2 -10 -13 -12 -30 -21 -38 -21 -22 0 -62 46 -84 95 -11 25 -26 45 -32
45 -7 0 -33 -20 -57 -45 -41 -42 -47 -45 -98 -45 -91 0 -258 -66 -359 -141
-29 -21 -56 -39 -60 -39 -4 0 -18 16 -31 35 -12 19 -30 35 -40 35 -10 0 -43
-17 -73 -38 -44 -30 -62 -52 -96 -118 l-42 -81 20 -37 19 -37 -25 -43 c-56
-95 -104 -266 -76 -266 6 0 11 9 11 19 0 27 27 51 57 51 61 0 113 -59 257
-297 l38 -62 -21 -27 c-11 -15 -21 -34 -21 -42 0 -9 -20 -59 -45 -112 -25 -54
-53 -134 -63 -179 l-18 -82 -22 24 c-12 13 -22 30 -22 39 0 8 -18 38 -40 66
-22 28 -49 70 -60 94 -27 62 -83 285 -77 309 3 10 1 19 -4 19 -21 0 -19 -53 6
-149 46 -182 43 -176 193 -404 18 -26 31 -70 44 -144 16 -93 24 -116 63 -177
50 -80 134 -173 180 -200 32 -19 137 -175 287 -426 86 -145 109 -182 227 -361
68 -104 84 -121 146 -161 103 -68 195 -115 236 -123 44 -8 196 26 250 57 34
19 42 20 63 9 13 -8 39 -41 56 -74 29 -55 31 -67 26 -117 -4 -30 -1 -81 5
-114 8 -43 7 -71 -1 -108 -11 -45 -11 -51 9 -72 13 -13 21 -35 21 -56 0 -18 6
-41 14 -49 11 -13 12 -26 5 -66 -6 -27 -14 -88 -19 -134 -12 -110 -1 -132 83
-172 127 -59 404 -109 602 -109 89 0 94 2 200 88 89 71 104 92 105 140 1 87
-80 170 -240 244 -58 27 -115 54 -127 60 -20 10 -22 16 -16 77 3 36 11 90 19
118 15 60 8 150 -26 343 -11 63 -20 127 -20 143 0 53 19 26 50 -69 17 -54 36
-106 42 -118 16 -32 60 -76 76 -76 10 0 12 -6 7 -22 -17 -56 -17 -123 0 -194
l17 -75 72 -46 c92 -60 331 -187 421 -223 l70 -28 80 41 c45 24 101 63 127 90
47 48 48 49 48 113 0 36 -6 79 -14 97 -32 77 -209 281 -273 316 -21 11 -22 17
-18 82 3 39 7 74 9 78 6 10 -19 123 -32 146 -16 27 -15 13 4 -59 18 -68 13
-149 -11 -196 -22 -43 -208 -130 -293 -138 -109 -9 -150 21 -167 123 -4 22
-25 94 -47 160 -22 66 -52 163 -67 215 -27 94 -28 95 -62 100 -30 4 -35 9 -39
40 -5 33 -8 35 -48 40 -41 5 -46 9 -80 64 -32 52 -37 67 -37 120 0 93 31 146
135 229 133 108 239 152 301 127 36 -15 33 -19 -56 -55 -67 -27 -146 -73 -192
-112 -27 -23 -66 -114 -61 -145 5 -26 9 -19 27 49 15 55 49 94 119 137 75 45
209 98 232 91 9 -3 44 -34 77 -68 48 -50 66 -78 92 -146 37 -96 40 -168 8
-163 -27 5 -267 -149 -267 -170 0 -29 27 -21 103 31 86 58 169 101 195 101 26
0 42 -20 42 -52 0 -15 7 -31 15 -36 9 -5 20 -34 26 -73 6 -35 17 -93 25 -129
11 -51 13 -55 10 -20 -11 116 -31 217 -49 242 -11 14 -16 31 -13 37 4 6 -2 23
-13 38 -12 16 -25 51 -30 80 -6 28 -25 89 -42 135 -38 98 -107 178 -194 224
-30 16 -64 45 -77 64 -16 24 -42 41 -85 59 -50 21 -63 31 -63 48 0 37 -11 53
-36 53 -13 0 -24 2 -24 4 0 2 7 32 16 66 14 54 14 64 2 76 -12 12 -20 12 -58
-1 -24 -8 -45 -14 -47 -11 -2 2 0 14 5 27 29 79 18 109 -41 109 -45 -1 -67
-15 -137 -92 -42 -46 -69 -68 -85 -68 -22 0 -22 0 -7 54 8 30 12 65 9 78 -7
25 -61 58 -96 58 -19 0 -61 -39 -61 -58 0 -7 -4 -12 -8 -12 -11 0 -62 54 -62
66 0 6 16 25 35 44 40 39 43 64 15 120 -31 60 -27 69 23 63 23 -3 57 -9 75
-15 19 -6 57 -7 86 -4 42 6 55 4 66 -9 11 -14 15 -14 30 0 15 13 20 12 49 -9
23 -18 52 -27 100 -31 36 -4 86 -16 110 -26 24 -10 52 -19 62 -19 10 0 41 -9
70 -20 28 -11 79 -23 113 -26 39 -4 81 -16 118 -35 69 -36 163 -69 194 -69 28
0 54 25 54 52 0 12 -23 44 -52 73 l-53 53 104 4 c86 4 106 8 117 23 28 38 17
61 -38 89 -29 14 -59 26 -67 26 -28 0 3 17 71 39 36 12 72 28 78 36 18 22 8
56 -23 79 -24 17 -43 21 -112 21 -47 0 -81 3 -77 6 4 3 43 19 87 35 93 33 128
62 123 101 -5 42 -39 55 -133 49 -44 -3 -95 -8 -113 -12 l-33 -7 6 37 c9 47 0
83 -23 91 -21 6 -144 -9 -205 -26 -21 -5 -56 -26 -78 -46 l-40 -36 -19 21
c-10 11 -50 30 -87 42 -99 33 -160 57 -228 93 -51 27 -73 32 -151 35 -81 4
-95 2 -140 -21 -79 -40 -104 -42 -144 -11 -19 14 -54 34 -78 45 -53 23 -198
49 -278 49 -33 0 -67 6 -75 13 -22 18 -79 92 -129 167 -23 36 -61 84 -83 107
-27 28 -44 58 -53 94 l-14 53 40 38 c23 23 40 48 40 61 0 31 -71 121 -98 125
-12 2 -22 -1 -22 -7z m-70 -205 c28 -31 38 -37 61 -32 23 4 28 1 34 -21 3 -14
4 -27 2 -29 -2 -2 -30 10 -63 28 -34 18 -81 34 -109 38 -44 4 -50 8 -53 30 -2
16 8 38 29 63 l32 38 17 -38 c10 -22 32 -56 50 -77z m58 92 c20 -20 14 -27
-13 -15 -14 7 -25 15 -25 20 0 11 25 8 38 -5z m-219 -87 c9 -17 5 -19 -48 -24
-97 -10 -213 -53 -296 -109 -42 -28 -79 -57 -82 -64 -7 -20 -20 -17 -26 6 -12
46 154 153 297 190 95 25 142 25 155 1z m169 -71 c180 -80 319 -364 240 -490
l-22 -35 -7 47 c-9 57 -53 141 -91 173 -16 14 -45 27 -66 31 -20 4 -53 19 -72
34 -84 65 -169 83 -262 56 -71 -20 -152 -91 -184 -161 -27 -58 -32 -150 -10
-193 16 -33 28 -92 18 -91 -4 0 -22 18 -39 41 -39 48 -41 74 -12 162 l22 65
-23 47 c-12 26 -37 70 -56 98 -19 28 -34 54 -34 57 0 15 139 108 196 132 139
59 305 70 402 27z m-676 -73 c8 -16 7 -17 -11 -8 -33 18 -70 13 -96 -14 -30
-29 -32 -58 -5 -95 30 -42 71 -55 109 -35 18 9 36 28 42 43 10 26 11 25 60
-58 69 -120 69 -118 19 -162 -23 -21 -48 -38 -54 -38 -11 1 -31 26 -121 156
-27 39 -63 88 -78 107 -40 50 -33 74 32 119 52 36 55 37 74 21 10 -10 23 -26
29 -36z m3 -37 c26 -28 15 -31 -12 -3 -12 13 -19 23 -14 23 4 0 16 -9 26 -20z
m-45 -10 c8 -5 10 -10 4 -10 -5 0 -18 -6 -28 -13 -16 -12 -17 -17 -6 -36 9
-18 17 -21 37 -16 16 4 22 2 18 -5 -10 -16 -37 -12 -62 12 -27 25 -29 41 -7
62 18 18 24 19 44 6z m12 -238 c18 -24 41 -54 52 -67 17 -21 17 -28 5 -74 -7
-28 -18 -51 -25 -51 -25 0 -224 283 -224 318 0 8 9 30 21 49 l21 34 58 -83
c32 -46 73 -103 92 -126z m-2 188 c0 -5 -2 -10 -4 -10 -3 0 -8 5 -11 10 -3 6
-1 10 4 10 6 0 11 -4 11 -10z m616 -45 c17 -7 35 -19 39 -26 6 -9 3 -10 -11
-4 -68 28 -73 29 -113 16 -97 -29 -149 -114 -137 -226 7 -65 6 -65 -16 -60
-13 3 -43 -1 -67 -10 -24 -8 -47 -15 -51 -15 -16 0 -32 72 -26 113 17 104 99
191 216 228 31 10 125 1 166 -16z m46 -61 c83 -42 144 -131 194 -286 5 -12
-16 -31 -82 -74 -49 -31 -103 -64 -122 -72 l-33 -16 -42 42 c-23 23 -65 64
-93 92 -56 56 -74 99 -74 177 0 39 6 59 28 89 64 88 121 100 224 48z m367 -53
l41 -59 -32 -11 c-17 -6 -35 -8 -39 -4 -8 9 -23 133 -16 133 2 0 23 -27 46
-59z m-225 14 c53 -35 115 -170 89 -196 -8 -8 -20 6 -43 50 -18 33 -48 78 -66
100 -19 21 -34 44 -34 50 0 16 27 14 54 -4z m-900 -119 c25 -36 46 -67 46 -71
0 -3 -17 8 -38 25 -36 28 -42 30 -80 21 -23 -5 -42 -5 -42 0 0 15 54 98 61 93
4 -2 28 -33 53 -68z m1413 15 c120 -23 150 -35 186 -69 22 -21 27 -35 27 -71
0 -45 -43 -308 -52 -316 -2 -3 -23 28 -45 68 -23 39 -67 104 -98 144 -49 63
-62 74 -108 88 -88 27 -160 68 -184 104 -26 38 -25 41 20 58 48 17 145 15 254
-6z m-1155 -47 c-13 -35 -25 -49 -51 -60 -18 -8 -35 -14 -36 -14 -2 0 2 16 8
36 7 25 23 42 51 59 23 14 42 25 43 25 1 0 -6 -21 -15 -46z m1729 -4 c20 -6
54 -24 74 -40 21 -17 47 -30 58 -30 29 0 214 -69 227 -86 7 -7 9 -17 6 -23
-11 -17 -103 18 -120 46 -6 12 -20 14 -61 8 -51 -6 -54 -5 -57 17 -3 20 -9 23
-54 24 -28 1 -60 6 -70 12 -43 23 -128 31 -187 17 -32 -7 -64 -19 -72 -25 -11
-9 -23 -9 -50 0 -46 15 -44 26 4 34 21 3 58 17 82 31 35 20 58 25 114 25 39 0
86 -5 106 -10z m-1963 -55 c21 -24 53 -72 71 -105 18 -33 53 -91 77 -127 43
-65 50 -86 38 -117 -10 -26 -26 -7 -129 150 -105 160 -150 202 -206 190 -28
-5 -30 -4 -18 11 18 21 67 42 101 43 19 0 37 -12 66 -45z m1053 17 c-6 -11
-27 -31 -48 -47 -38 -28 -38 -27 7 18 50 52 55 55 41 29z m0 -54 c-142 -131
-360 -282 -431 -297 -25 -6 -63 -18 -85 -27 -52 -21 -228 -31 -277 -15 -45 15
-66 37 -50 53 9 9 18 8 38 -3 41 -21 198 -13 315 16 77 19 117 37 208 92 142
87 280 190 300 225 11 18 19 24 26 17 7 -7 -7 -27 -44 -61z m-582 18 c55 -29
130 -137 131 -189 0 -33 -34 -15 -41 21 -11 54 -78 124 -135 143 -44 14 -47
17 -29 27 27 15 41 15 74 -2z m-206 -51 c26 -30 72 -73 102 -97 30 -23 52 -44
50 -46 -2 -2 -29 8 -61 22 -54 25 -194 130 -194 146 0 6 36 28 51 29 3 1 26
-24 52 -54z m948 29 c33 -15 59 -30 59 -34 0 -12 -40 -43 -235 -184 -104 -75
-203 -147 -218 -159 -27 -21 -43 -22 -245 -28 -213 -7 -284 -17 -434 -64 -39
-13 -14 67 35 114 25 23 26 23 71 6 63 -24 237 -16 316 14 30 12 62 21 70 21
38 0 314 191 428 296 55 51 74 53 153 18z m698 17 c22 -14 -26 -63 -50 -51
-10 6 -42 10 -73 10 -30 0 -58 5 -61 10 -17 27 146 55 184 31z m741 -26 c5
-14 17 -28 25 -31 26 -10 17 -22 -37 -53 -59 -34 -79 -30 -97 20 -23 66 -7 87
67 88 26 1 34 -4 42 -24z m40 4 c0 -11 -4 -17 -10 -14 -5 3 -10 13 -10 21 0 8
5 14 10 14 6 0 10 -9 10 -21z m-2605 1 c3 -5 19 -10 34 -10 18 0 38 -11 57
-31 41 -44 139 -109 204 -136 44 -18 74 -23 150 -22 114 0 192 26 310 105 88
59 100 67 100 61 0 -11 -167 -121 -250 -165 -105 -55 -121 -59 -282 -72 -162
-13 -189 1 -282 150 -56 89 -74 130 -57 130 5 0 13 -4 16 -10z m1589 -21 c8
-12 19 -18 25 -15 6 4 20 -8 31 -26 17 -29 20 -30 20 -11 0 30 28 43 70 34 33
-7 35 -10 33 -45 -2 -22 1 -34 7 -31 6 3 10 12 10 18 0 7 12 27 28 45 23 28
36 34 91 42 74 10 81 8 81 -26 0 -28 -2 -27 57 -12 40 9 47 9 55 -5 5 -10 28
-22 51 -28 52 -13 89 -39 67 -47 -27 -9 -96 -88 -119 -135 -28 -58 -31 -159
-6 -230 9 -27 14 -51 12 -54 -8 -7 -53 59 -66 96 -14 44 -14 158 0 202 6 19
24 51 40 71 33 41 35 48 16 48 -22 0 -64 -52 -93 -115 -24 -50 -28 -74 -28
-147 -1 -71 -3 -83 -12 -65 -20 38 -37 127 -30 158 12 61 58 141 92 161 35 21
46 48 19 48 -23 0 -99 -111 -119 -174 -17 -54 -17 -61 -1 -124 9 -37 25 -82
35 -99 17 -29 17 -33 4 -33 -9 0 -30 10 -46 22 -24 17 -34 19 -48 10 -20 -12
-52 7 -97 58 -47 52 -49 95 -12 241 12 49 12 66 -1 53 -13 -13 -40 -153 -40
-208 0 -31 8 -55 30 -87 l30 -44 -32 -13 c-26 -11 -33 -11 -46 1 -12 12 -12
21 -2 52 13 40 6 170 -11 195 -6 10 -7 -14 -3 -66 7 -90 0 -150 -19 -157 -6
-2 -37 -2 -68 0 -54 5 -56 6 -82 53 -15 26 -27 63 -27 81 0 38 46 305 55 320
10 16 33 10 49 -12z m816 -12 c0 -22 10 -45 31 -70 29 -36 31 -40 18 -64 -21
-38 -49 -47 -92 -29 -37 15 -77 66 -77 98 0 19 86 98 106 98 9 0 14 -12 14
-33z m32 -7 c2 -22 0 -36 -3 -32 -11 11 -15 72 -5 72 2 0 6 -18 8 -40z m-2078
10 c66 -31 125 -140 77 -140 -27 0 -82 20 -114 42 -30 22 -71 93 -62 108 10
16 56 11 99 -10z m957 -92 c96 -131 269 -446 269 -490 0 -24 -67 -88 -128
-121 l-50 -27 -53 25 c-30 14 -71 25 -92 25 -37 0 -134 -43 -219 -96 -45 -28
-66 -30 -75 -6 -7 19 -68 107 -128 185 -51 66 -115 168 -115 184 0 34 31 68
119 129 53 38 148 107 212 155 120 89 165 118 187 119 7 0 39 -37 73 -82z
m1522 1 c8 -21 12 -41 9 -43 -4 -2 -51 -20 -105 -41 -92 -34 -100 -35 -111
-19 -13 18 -41 113 -35 118 13 10 151 30 185 28 38 -4 43 -7 57 -43z m34 16
c8 -22 -6 -33 -17 -15 -13 20 -12 30 0 30 6 0 13 -7 17 -15z m-2307 -59 c-14
-14 -27 2 -35 39 l-6 30 25 -30 c16 -19 22 -33 16 -39z m2020 5 c-1 -13 -3
-13 -15 3 -19 26 -19 42 0 26 8 -7 15 -20 15 -29z m-24 -13 c15 -23 30 -53 34
-67 10 -37 -7 -154 -25 -167 -9 -7 -13 -19 -9 -28 13 -33 -15 -105 -59 -150
l-42 -43 -96 7 c-102 8 -128 18 -153 61 -19 32 -22 149 -5 166 9 9 9 20 -1 43
-24 57 8 200 44 200 8 0 24 -16 36 -35 23 -38 65 -65 100 -65 48 0 33 -55 -24
-85 -37 -20 -46 -35 -22 -35 32 0 76 52 94 112 20 65 27 65 38 0 4 -23 10 -42
14 -42 8 0 -5 94 -15 110 -7 11 38 60 54 60 6 0 23 -19 37 -42z m-381 -96 c-3
-26 -2 -59 3 -72 6 -16 5 -57 -3 -110 -13 -95 -19 -89 -35 34 -10 78 -3 132
21 179 16 29 21 19 14 -31z m-164 -9 c-15 -54 -14 -123 4 -173 21 -58 19 -68
-7 -42 -20 20 -23 33 -23 105 0 45 6 99 14 120 17 49 26 41 12 -10z m114 -100
c0 -104 3 -134 18 -160 10 -18 13 -33 7 -33 -5 0 -20 19 -32 43 -19 36 -23 57
-23 143 0 71 4 106 14 117 7 10 14 17 15 17 0 0 1 -57 1 -127z m700 97 c22 -8
26 -15 23 -42 -4 -45 -56 -70 -156 -76 l-74 -5 16 31 c9 17 16 44 16 61 0 25
5 30 28 34 54 8 121 7 147 -3z m-195 -38 c0 -16 -7 -37 -15 -48 -14 -18 -14
-18 -15 6 0 35 11 70 21 70 5 0 9 -13 9 -28z m250 -8 c0 -8 -4 -12 -10 -9 -5
3 -10 13 -10 21 0 8 5 12 10 9 6 -3 10 -13 10 -21z m-2176 -131 c10 -21 63
-103 118 -181 93 -134 138 -205 138 -218 0 -3 -20 -14 -44 -25 -31 -13 -51
-17 -68 -11 -12 5 -29 7 -37 4 -19 -6 -207 183 -243 246 -36 62 -66 88 -122
104 -54 15 -187 12 -274 -6 -104 -22 -144 -46 -197 -121 -26 -36 -49 -65 -52
-65 -11 0 10 70 45 148 l36 82 71 21 c38 11 84 24 100 30 62 19 154 27 331 28
l180 1 18 -37z m2068 0 c34 -14 37 -17 31 -46 -3 -18 -11 -35 -17 -39 -13 -9
-152 -10 -184 -2 -24 7 -24 14 4 83 l14 33 57 -7 c32 -4 74 -14 95 -22z m-182
4 c0 -7 -7 -22 -15 -33 -13 -17 -14 -16 -4 14 11 33 19 41 19 19z m250 -62 c0
-8 -4 -15 -10 -15 -5 0 -10 7 -10 15 0 8 5 15 10 15 6 0 10 -7 10 -15z m-835
-5 c3 -5 1 -10 -4 -10 -6 0 -11 5 -11 10 0 6 2 10 4 10 3 0 8 -4 11 -10z
m-1535 -52 c19 -8 41 -27 49 -41 8 -15 18 -27 23 -27 4 0 8 -7 8 -16 0 -9 26
-42 58 -73 32 -31 72 -72 89 -91 l31 -35 -57 0 c-154 -1 -304 -141 -372 -347
-26 -80 -21 -127 18 -158 53 -41 -6 -19 -93 35 -130 82 -151 105 -95 105 37 0
85 40 112 92 49 96 30 259 -37 326 -31 31 -39 34 -74 29 -59 -8 -111 -39 -132
-78 -9 -19 -23 -70 -31 -114 -14 -80 -14 -80 -25 -45 -6 19 -14 73 -18 120 -7
100 0 124 69 217 50 67 76 85 159 108 68 19 267 15 318 -7z m2185 -55 c30 -29
35 -40 30 -62 -10 -41 -17 -42 -86 -20 -92 31 -97 37 -65 92 26 43 29 45 56
36 15 -6 45 -26 65 -46z m-134 29 c-5 -10 -18 -25 -27 -33 -16 -12 -17 -12 -9
1 10 18 37 50 42 50 2 0 -1 -8 -6 -18z m-1186 -154 c25 -12 44 -27 42 -33 -4
-13 -84 -40 -167 -55 -65 -12 -150 -1 -150 19 0 5 35 27 78 50 90 47 131 51
197 19z m370 0 c7 -7 2 -9 -15 -4 -14 3 -31 6 -38 6 -7 0 -10 5 -7 10 7 12 44
4 60 -12z m-165 -10 c38 -40 41 -53 19 -77 -24 -26 -21 -26 -61 -1 -18 11 -50
20 -70 20 -21 0 -38 3 -37 8 0 11 92 70 111 71 10 1 27 -9 38 -21z m158 -19
c43 -15 46 -33 18 -95 -21 -45 -32 -56 -66 -70 -56 -22 -42 -30 25 -14 49 12
59 11 95 -5 60 -27 90 -61 90 -102 0 -26 4 -34 14 -30 8 3 24 -5 36 -18 17
-18 20 -30 15 -55 -6 -27 -4 -32 15 -37 17 -5 20 -11 15 -35 -4 -17 -2 -35 5
-43 15 -18 -1 -49 -37 -72 -14 -10 -83 -31 -152 -49 l-126 -31 -7 71 c-9 82
-48 213 -81 271 -12 22 -39 51 -59 64 -36 23 -37 25 -23 51 22 43 164 210 179
210 7 0 27 -5 44 -11z m317 1 c3 -5 1 -10 -4 -10 -6 0 -11 5 -11 10 0 6 2 10
4 10 3 0 8 -4 11 -10z m-29 -25 c19 -29 15 -46 -38 -144 l-41 -73 -24 30 c-13
17 -39 40 -58 52 l-35 22 61 69 c49 55 67 69 90 69 19 0 34 -8 45 -25z m-1791
-18 c80 -80 74 -273 -11 -352 -29 -27 -63 -31 -112 -14 -25 8 -39 25 -63 75
-28 57 -31 71 -27 127 8 95 37 153 90 177 61 28 85 25 123 -13z m1260 -21 c40
-17 47 -35 10 -29 -40 8 -128 -17 -157 -45 -20 -18 -28 -36 -28 -59 0 -23 -5
-33 -15 -33 -11 0 -15 11 -15 35 0 45 57 109 115 130 50 18 49 18 90 1z m-163
-22 c-39 -31 -62 -72 -62 -112 0 -39 -22 -56 -61 -48 -19 3 -38 0 -53 -9 -17
-11 -30 -12 -57 -5 -18 6 -51 8 -71 4 -54 -8 -98 10 -148 61 -47 48 -46 48 25
60 22 3 70 20 107 37 62 28 70 30 115 19 37 -9 67 -9 118 -1 38 6 71 13 74 16
2 2 14 4 25 4 18 0 17 -4 -12 -26z m-590 -14 c57 -16 58 -32 1 -25 -52 7 -129
-16 -185 -56 -32 -23 -87 -101 -143 -203 -32 -59 -37 -75 -32 -115 2 -25 8
-54 12 -65 7 -16 5 -17 -12 -8 -35 19 -48 67 -34 121 45 171 158 304 294 346
53 17 54 17 99 5z m1408 -10 c0 -5 -2 -10 -4 -10 -3 0 -8 5 -11 10 -3 6 -1 10
4 10 6 0 11 -4 11 -10z m-630 -10 c12 -8 13 -13 2 -27 -6 -10 -19 -31 -28 -48
-15 -29 -18 -30 -85 -32 -80 -2 -90 7 -64 56 8 17 17 31 18 31 1 0 20 7 42 15
47 16 94 19 115 5z m598 -2 c23 -23 12 -66 -37 -141 -58 -88 -68 -96 -80 -65
-5 13 -18 31 -30 42 l-20 19 26 46 c48 87 110 130 141 99z m-1399 -43 c37 -19
48 -60 24 -88 -17 -20 -17 -20 2 -13 11 5 29 11 40 14 17 4 16 2 -5 -16 -28
-24 -21 -27 30 -12 37 11 80 -8 80 -34 0 -11 14 -13 66 -8 44 3 73 1 90 -9 19
-10 30 -10 43 -2 14 9 21 9 30 0 8 -8 23 -5 56 11 25 12 64 25 88 28 23 4 55
13 71 22 29 14 30 14 60 -24 55 -68 75 -89 76 -77 0 6 -16 33 -36 58 -35 46
-39 75 -10 75 19 0 42 -24 63 -63 9 -18 31 -50 49 -72 46 -56 55 -86 61 -195
7 -119 -4 -145 -78 -183 -28 -15 -54 -25 -57 -22 -3 3 1 24 9 47 22 66 16 201
-10 270 -22 58 -60 114 -61 90 0 -7 10 -41 22 -75 28 -81 31 -217 5 -262 -9
-16 -21 -42 -26 -56 -5 -15 -18 -28 -28 -31 -17 -4 -18 4 -18 111 0 96 -4 129
-25 191 -26 80 -39 73 -21 -11 14 -65 14 -156 -1 -236 -14 -76 -24 -83 -123
-83 -47 0 -69 5 -86 19 -23 19 -24 24 -29 212 -3 129 -9 194 -16 196 -18 6
-25 -31 -38 -215 -7 -95 -18 -178 -24 -184 -6 -6 -50 -12 -99 -15 -72 -4 -99
-1 -147 16 -80 29 -155 78 -162 107 -8 32 4 108 26 166 10 27 14 48 10 48 -15
0 -50 -109 -50 -154 0 -46 -15 -61 -46 -49 -23 9 -12 62 32 151 20 41 33 76
30 79 -6 6 -79 -140 -89 -178 -6 -21 -7 -21 -29 -7 -33 22 -57 67 -64 122 -6
43 -3 56 35 130 50 99 121 182 175 207 50 23 69 23 105 4z m92 -12 c46 -26 69
-56 54 -71 -4 -4 -11 1 -16 11 -6 10 -22 17 -39 17 -21 0 -33 8 -49 35 -25 42
-14 44 50 8z m1075 -17 c10 -8 17 -17 14 -19 -3 -3 -16 3 -30 13 -29 22 -14
27 16 6z m-571 -66 c-3 -5 -17 -10 -31 -10 -14 0 -22 4 -19 10 3 6 17 10 31
10 14 0 22 -4 19 -10z m225 -16 c77 -65 149 -312 111 -382 -19 -36 -29 -25
-35 36 -14 140 -27 197 -54 236 -87 126 -97 172 -22 110z m-550 0 c19 -3 42
-8 50 -12 22 -8 -51 -19 -76 -11 -11 4 -28 3 -38 -3 -22 -13 -27 -8 -19 21 4
17 11 21 27 16 11 -3 37 -8 56 -11z m225 7 c17 -7 13 -11 -29 -30 -44 -19 -51
-20 -66 -6 -9 8 -20 12 -23 8 -4 -3 -7 -1 -7 6 0 9 9 11 29 6 20 -4 33 -1 43
9 15 17 24 18 53 7z m943 -31 c4 -34 -110 -157 -116 -125 -2 11 -9 26 -14 32
-8 9 1 28 32 69 35 46 46 55 68 52 20 -2 28 -9 30 -28z m97 -51 c38 -10 85
-44 85 -60 0 -5 -32 -18 -70 -29 -45 -13 -99 -41 -150 -76 -44 -30 -80 -53
-80 -51 0 2 32 36 71 75 67 67 71 74 66 106 -8 50 3 55 78 35z m-105 -58 c0
-11 -18 -39 -40 -62 -38 -41 -41 -42 -58 -25 -16 17 -15 20 33 62 55 49 65 53
65 25z m-1095 -389 c-2 -3 -11 1 -20 8 -18 15 -20 109 -5 227 19 142 25 130
28 -51 1 -98 0 -181 -3 -184z m415 200 c0 -41 -6 -88 -14 -107 -21 -50 -27
-43 -9 13 10 32 13 71 9 122 -3 47 -1 69 4 60 6 -8 10 -48 10 -88z m-1086 -22
c37 0 46 -6 111 -73 54 -55 82 -95 119 -172 57 -113 118 -182 207 -229 29 -16
70 -42 89 -58 19 -15 40 -28 46 -28 6 0 23 -9 38 -21 17 -14 35 -19 50 -15 18
4 30 -3 55 -31 18 -20 39 -49 46 -64 8 -15 25 -36 37 -46 13 -10 40 -39 61
-64 21 -26 51 -52 67 -59 17 -7 30 -16 30 -21 0 -17 -46 -38 -132 -60 -85 -22
-89 -22 -141 -6 -68 22 -216 110 -263 157 -35 35 -237 343 -327 498 -23 40
-77 128 -121 195 -43 67 -81 128 -84 135 -2 7 12 2 33 -12 25 -18 51 -26 79
-26z m1604 3 c-37 -40 -56 -82 -70 -156 -7 -36 -16 -63 -20 -61 -16 10 -7 80
16 129 22 48 76 115 92 115 4 0 -4 -12 -18 -27z m-77 -63 c-17 -35 -33 -83
-37 -107 l-6 -43 -19 24 c-10 13 -48 42 -84 66 -68 44 -76 56 -47 68 21 8 216
58 220 56 1 -1 -11 -30 -27 -64z m-570 -32 c-9 -31 -9 -31 -10 -6 -1 30 11 67
16 51 2 -6 0 -26 -6 -45z m-748 -15 c33 -26 57 -66 71 -118 9 -31 138 -163
166 -169 14 -3 57 -11 95 -18 44 -8 70 -18 69 -25 -1 -7 -2 -33 -2 -58 -2 -38
-5 -45 -22 -45 -10 0 -34 13 -52 29 -18 15 -53 37 -78 48 -80 35 -153 112
-209 223 -28 54 -63 113 -77 129 -33 40 -11 42 39 4z m1152 -25 c43 -29 80
-58 82 -63 2 -6 -24 -15 -56 -22 -80 -15 -149 -62 -258 -177 -67 -69 -99 -113
-132 -178 l-44 -86 5 -91 c4 -88 3 -91 -17 -91 -30 0 -58 33 -50 59 4 15 -1
28 -19 45 -17 15 -26 34 -26 53 0 69 81 246 103 224 25 -25 56 -11 102 47 49
62 55 86 26 102 -29 15 -101 13 -107 -4 -3 -8 -18 -16 -34 -19 -38 -8 -70 -45
-110 -128 -19 -38 -37 -69 -41 -69 -4 0 -11 9 -14 20 -3 11 -17 23 -30 26 -13
3 -31 14 -40 24 -15 17 -15 22 1 76 20 69 59 140 84 154 10 6 34 10 54 10 19
0 47 5 63 12 15 6 42 12 58 14 100 8 145 20 193 48 71 42 116 66 123 66 3 0
41 -24 84 -52z m-980 -64 c57 -16 142 -18 200 -4 49 12 110 3 96 -14 -5 -6
-20 -49 -34 -96 l-25 -85 -58 3 c-100 5 -125 16 -197 91 -37 38 -67 76 -67 84
0 9 -3 23 -7 33 -5 14 -3 16 18 10 13 -4 46 -14 74 -22z m375 -31 c0 -3 -8
-17 -19 -31 -27 -39 -62 -156 -69 -237 -6 -55 -11 -70 -24 -73 -16 -3 -18 6
-18 77 0 138 60 287 111 274 10 -3 19 -7 19 -10z m774 -51 c52 -30 176 -231
184 -297 7 -64 -14 -90 -106 -132 -97 -45 -215 -126 -189 -131 10 -2 35 12 56
31 39 35 144 91 194 103 41 10 33 -13 -10 -26 -53 -17 -149 -69 -169 -91 -31
-35 7 -21 77 26 36 25 78 47 94 48 l29 2 29 -145 c40 -209 41 -380 1 -516 -13
-45 -22 -57 -67 -86 -120 -79 -233 -104 -326 -73 -29 9 -51 19 -49 21 2 2 51
5 109 6 102 3 109 5 185 44 43 23 80 47 82 54 2 6 -29 -6 -69 -28 -68 -37
-129 -59 -129 -48 0 3 38 23 85 45 47 22 85 44 85 49 0 6 -30 -5 -67 -24 -111
-56 -194 -78 -275 -71 -39 3 -72 7 -73 9 -2 2 -8 39 -13 83 -6 44 -14 91 -18
104 -6 22 -5 23 17 17 112 -33 280 -32 344 2 50 27 43 27 -55 1 -70 -18 -88
-19 -161 -9 -95 13 -159 36 -159 56 0 23 24 26 83 11 50 -13 67 -13 164 3 59
10 128 23 153 30 53 14 124 49 116 57 -3 3 -47 -5 -98 -18 -77 -20 -118 -24
-241 -24 -140 0 -150 1 -166 21 -27 34 -16 88 25 119 19 14 34 30 34 36 0 5
-19 9 -42 9 l-42 0 44 45 c25 25 55 48 68 52 27 6 51 43 29 43 -16 0 -55 -28
-104 -73 -37 -35 -42 -33 -49 14 -4 27 1 43 25 79 49 72 36 105 -24 58 l-27
-21 7 24 c4 13 14 33 21 44 16 23 19 65 4 65 -12 0 -45 -65 -55 -108 -9 -44
-41 -40 -68 8 -39 70 -1 193 100 320 71 88 168 164 248 194 48 18 116 13 159
-12z m-227 1 c-9 -10 -31 -27 -49 -37 -31 -19 -32 -19 -18 -1 13 16 69 55 79
55 2 0 -3 -8 -12 -17z m-237 -58 c10 -12 5 -24 -25 -65 -35 -48 -66 -63 -80
-40 -11 18 17 42 42 36 18 -5 24 -1 29 20 5 19 2 31 -10 39 -9 7 -16 15 -16
19 0 12 48 6 60 -9z m-62 -32 c2 -8 -5 -13 -15 -13 -21 0 -78 -70 -111 -135
-27 -54 -52 -141 -52 -182 0 -23 -4 -31 -14 -27 -17 7 -36 48 -36 80 0 62 104
268 143 284 30 12 80 8 85 -7z m697 -57 c6 -28 12 -35 38 -40 31 -6 33 -11 66
-114 19 -59 51 -156 71 -217 20 -60 39 -131 42 -157 5 -41 3 -48 -14 -54 -26
-8 -60 16 -80 57 -9 19 -33 86 -54 149 -29 90 -38 132 -38 190 -1 69 -4 81
-38 138 -43 73 -46 82 -18 82 14 0 21 -9 25 -34z m-954 -97 c32 -34 34 -44 19
-85 -10 -26 -11 -26 -31 -8 -24 22 -43 57 -53 97 -5 23 -3 27 15 27 11 0 34
-14 50 -31z m279 -61 c-11 -25 -25 -76 -32 -115 -11 -68 -11 -71 13 -100 13
-17 36 -37 51 -46 38 -22 56 -54 71 -127 11 -54 17 -65 37 -71 21 -6 22 -7 5
-8 -30 -1 -47 -21 -33 -38 8 -10 8 -20 -1 -39 -9 -19 -9 -30 0 -40 6 -7 12
-41 14 -76 2 -35 10 -88 19 -118 20 -67 21 -133 4 -128 -7 3 -14 20 -16 39 -2
19 -11 42 -20 52 -14 16 -17 46 -18 202 0 116 -4 188 -11 197 -6 7 -18 30 -26
51 -9 20 -20 37 -26 37 -18 0 -41 31 -41 54 0 13 -10 30 -22 39 -20 13 -23 23
-22 83 0 56 6 82 32 138 18 38 34 67 37 64 3 -3 -4 -25 -15 -50z m-155 -178
c3 -6 -1 -7 -9 -4 -18 7 -21 14 -7 14 6 0 13 -4 16 -10z m275 -75 c-7 -9 -15
-13 -18 -10 -3 2 1 11 8 20 7 9 15 13 18 10 3 -2 -1 -11 -8 -20z m1291 -154
c82 -53 240 -235 225 -260 -4 -6 -19 -6 -42 1 -20 5 -45 7 -56 5 -15 -4 -49
24 -143 119 l-123 125 37 19 c47 25 50 25 102 -9z m-71 -103 c36 -35 84 -87
107 -115 l43 -51 -48 -61 c-50 -65 -47 -65 -80 -16 -16 23 -203 185 -231 199
-17 9 -70 30 -118 47 -48 18 -92 36 -98 42 -7 7 -3 7 10 2 11 -5 54 -12 95
-18 72 -9 79 -8 150 21 46 18 81 27 90 22 8 -5 44 -37 80 -72z m-344 -12 c51
-18 112 -45 138 -60 66 -39 199 -161 225 -207 12 -21 27 -39 32 -39 5 0 28 27
52 59 59 84 78 92 175 76 27 -5 47 -15 53 -27 9 -17 4 -26 -34 -61 -64 -60
-145 -105 -209 -119 -54 -11 -57 -11 -92 15 -33 26 -100 59 -298 150 -42 20
-97 54 -122 77 -42 39 -46 46 -46 90 0 56 7 80 24 80 6 0 52 -15 102 -34z
m-596 -116 c-14 -4 -50 -8 -80 -7 l-55 0 55 7 c30 4 66 7 80 7 l25 1 -25 -8z
m527 -82 c-3 -8 -6 -5 -6 6 -1 11 2 17 5 13 3 -3 4 -12 1 -19z m93 -60 c0 -30
-25 -15 -28 17 -3 25 -2 27 12 16 9 -8 16 -22 16 -33z m40 -19 c0 -17 -4 -28
-10 -24 -5 3 -10 17 -10 31 0 13 5 24 10 24 6 0 10 -14 10 -31z m50 -20 c0
-31 -14 -39 -24 -13 -11 30 -7 54 9 48 9 -4 15 -19 15 -35z m570 7 c0 -19 -4
-38 -10 -41 -6 -4 -10 10 -10 34 0 23 5 41 10 41 6 0 10 -15 10 -34z m-525
-35 c5 -25 4 -32 -6 -29 -14 5 -31 63 -21 73 9 9 19 -8 27 -44z m485 -6 c0
-25 -4 -45 -10 -45 -11 0 -14 73 -3 83 11 12 13 8 13 -38z m-442 -16 c4 -40
-12 -30 -22 14 -5 21 -3 28 6 25 7 -3 14 -20 16 -39z m42 -20 c0 -18 -4 -28
-10 -24 -5 3 -10 20 -10 36 0 18 4 28 10 24 6 -3 10 -20 10 -36z m358 -1 c-4
-55 -28 -64 -28 -10 0 21 3 42 7 45 16 17 24 4 21 -35z m-318 -14 c0 -41 -16
-38 -22 6 -3 20 0 30 9 30 8 0 13 -13 13 -36z m270 -9 c0 -25 -4 -45 -10 -45
-11 0 -14 73 -3 83 11 12 13 8 13 -38z m-650 -51 c36 -19 79 -46 95 -59 l30
-25 -42 0 c-23 0 -45 -5 -48 -10 -5 -8 -11 -7 -20 0 -8 7 -72 40 -142 74
l-128 63 33 20 34 21 61 -25 c34 -14 91 -40 127 -59z m424 60 c9 -24 7 -54 -4
-54 -13 0 -29 41 -23 58 7 17 20 15 27 -4z m186 -39 c0 -53 -24 -63 -33 -15
-8 36 0 60 19 60 10 0 14 -13 14 -45z m-142 -11 c2 -28 2 -28 -13 -10 -18 24
-20 49 -2 44 6 -3 13 -18 15 -34z m95 -1 c5 -43 -1 -62 -14 -42 -11 18 -11 79
0 79 5 0 11 -17 14 -37z m-43 -8 c0 -36 -13 -47 -24 -19 -11 28 -6 54 9 54 10
0 15 -11 15 -35z m-663 -35 c66 -32 126 -66 133 -75 10 -13 6 -24 -29 -70 -23
-30 -50 -55 -59 -55 -10 0 -39 14 -65 30 -102 64 -205 119 -248 130 -66 18
-67 21 -8 40 30 9 72 26 94 38 22 12 45 21 51 22 6 0 65 -27 131 -60z m-549
38 c15 -15 123 -56 177 -68 100 -22 209 -70 305 -135 119 -80 121 -80 189 13
53 74 86 90 138 71 20 -8 38 -20 41 -28 5 -15 -141 -160 -193 -192 -24 -15
-50 -19 -135 -19 -175 1 -281 27 -471 118 -111 53 -124 68 -123 140 2 95 34
138 72 100z m869 -210 c-3 -8 -6 -5 -6 6 -1 11 2 17 5 13 3 -3 4 -12 1 -19z
m-927 -15 c0 -22 -2 -25 -10 -13 -13 20 -13 40 0 40 6 0 10 -12 10 -27z m40
-39 c0 -21 -4 -33 -10 -29 -5 3 -10 19 -10 36 0 16 5 29 10 29 6 0 10 -16 10
-36z m869 -7 c1 -5 -3 -5 -9 -2 -5 3 -10 16 -9 28 0 21 1 21 9 2 5 -11 9 -24
9 -28z m-42 -19 c-2 -13 -4 -5 -4 17 -1 22 1 32 4 23 2 -10 2 -28 0 -40z
m-777 25 c0 -31 -12 -63 -21 -57 -16 9 -11 74 6 74 8 0 15 -8 15 -17z m741
-66 c-8 -8 -11 -1 -11 24 0 46 14 60 18 19 2 -18 -1 -37 -7 -43z m-701 27 c0
-31 -2 -35 -15 -24 -8 7 -15 23 -15 36 0 15 6 24 15 24 11 0 15 -11 15 -36z
m40 -15 c0 -17 -4 -28 -10 -24 -5 3 -10 17 -10 31 0 13 5 24 10 24 6 0 10 -14
10 -31z m621 -52 c-16 -16 -26 40 -10 60 13 15 14 13 17 -17 2 -18 -1 -37 -7
-43z m-565 48 c4 -8 3 -22 0 -31 -5 -13 -9 -14 -21 -4 -8 7 -15 21 -15 31 0
23 28 25 36 4z m35 -18 c-1 -4 -1 -14 -1 -23 0 -8 -4 -12 -10 -9 -13 8 -13 48
1 43 6 -2 10 -7 10 -11z m47 -26 c3 -16 -1 -22 -10 -19 -7 3 -15 15 -16 27 -3
16 1 22 10 19 7 -3 15 -15 16 -27z m450 -3 c-2 -21 -8 -33 -18 -33 -19 0 -25
32 -10 50 20 24 31 17 28 -17z m-414 -3 c-4 -8 -8 -15 -10 -15 -2 0 -4 7 -4
15 0 8 4 15 10 15 5 0 7 -7 4 -15z m46 -5 c0 -19 -11 -26 -23 -14 -8 8 3 34
14 34 5 0 9 -9 9 -20z m48 -7 c-4 -22 -22 -20 -26 1 -2 10 3 16 13 16 10 0 15
-7 13 -17z m42 -8 c0 -8 -4 -15 -10 -15 -5 0 -10 7 -10 15 0 8 5 15 10 15 6 0
10 -7 10 -15z m27 -7 c-3 -8 -6 -5 -6 6 -1 11 2 17 5 13 3 -3 4 -12 1 -19z
m59 11 c10 -17 -13 -36 -27 -22 -12 12 -4 33 11 33 5 0 12 -5 16 -11z m44 -10
c0 -24 -23 -21 -28 4 -2 10 3 17 12 17 10 0 16 -9 16 -21z m45 3 c0 -18 -20
-15 -23 4 -3 10 1 15 10 12 7 -3 13 -10 13 -16z m45 -2 c0 -11 -4 -20 -10 -20
-5 0 -10 9 -10 20 0 11 5 20 10 20 6 0 10 -9 10 -20z"/>
<path d="M923 4484 c-9 -24 10 -49 38 -49 20 0 24 5 24 30 0 25 -4 30 -28 33
-18 2 -29 -2 -34 -14z m47 -20 c0 -9 -5 -14 -12 -12 -18 6 -21 28 -4 28 9 0
16 -7 16 -16z"/>
<path d="M2471 4144 c0 -11 3 -14 6 -6 3 7 2 16 -1 19 -3 4 -6 -2 -5 -13z"/>
<path d="M2520 4062 c0 -50 3 -60 15 -56 11 5 13 17 8 52 -9 72 -23 74 -23 4z"/>
<path d="M2462 4045 c0 -16 2 -22 5 -12 2 9 2 23 0 30 -3 6 -5 -1 -5 -18z"/>
<path d="M2438 3918 c-10 -39 -16 -74 -13 -76 7 -7 37 107 33 128 -2 11 -11
-12 -20 -52z"/>
<path d="M2510 3950 c0 -10 -9 -43 -20 -71 -23 -58 -19 -82 5 -27 17 41 31
118 21 118 -3 0 -6 -9 -6 -20z"/>
<path d="M2014 4082 c-59 -38 -143 -100 -281 -207 -40 -31 -73 -64 -73 -74 0
-16 106 -171 116 -171 3 0 42 26 87 59 45 32 123 84 172 115 94 58 111 72 158
123 l29 31 -41 60 c-37 55 -84 102 -101 102 -4 0 -33 -17 -66 -38z m111 -17
c38 -38 78 -109 68 -119 -13 -12 -33 -5 -33 12 0 9 -16 38 -36 65 -40 55 -39
55 -134 -24 l-61 -50 31 -35 c16 -19 30 -39 30 -44 0 -19 20 -10 81 35 34 25
64 43 67 40 3 -3 3 -6 1 -8 -2 -2 -28 -20 -56 -41 -29 -21 -53 -42 -53 -47 0
-4 25 9 57 31 31 22 59 38 61 35 11 -10 -36 -48 -137 -112 -58 -36 -134 -85
-168 -109 l-62 -44 -34 42 c-18 24 -44 58 -56 75 l-22 33 28 26 c66 63 363
274 384 274 5 0 24 -16 44 -35z m-11 -60 c22 -40 28 -30 -60 -94 l-41 -30 -29
30 c-23 24 -26 33 -18 47 12 19 103 82 119 82 6 0 19 -16 29 -35z"/>
<path d="M1804 3880 c-12 -4 -31 -21 -43 -36 -60 -76 31 -165 114 -110 60 39
54 115 -11 142 -19 8 -35 14 -36 13 -2 0 -13 -4 -24 -9z m61 -16 c21 -8 46
-59 39 -78 -3 -8 -26 -24 -50 -35 -49 -23 -74 -18 -94 20 -28 51 45 116 105
93z"/>
<path d="M2214 3759 c-32 -16 -57 -66 -49 -97 21 -85 141 -112 184 -41 20 33
19 104 -3 125 -16 16 -107 25 -132 13z m46 -14 c0 -3 -9 -18 -20 -34 -17 -22
-19 -32 -11 -54 9 -22 17 -27 45 -27 25 0 39 7 50 22 15 20 16 21 16 4 0 -75
-121 -74 -159 1 -15 30 -15 31 20 64 28 26 59 38 59 24z m80 -10 c15 -18 6
-45 -13 -45 -8 0 -20 7 -27 15 -10 12 -10 18 0 30 16 19 24 19 40 0z m-43 -58
c19 -12 16 -25 -7 -32 -39 -12 -66 35 -38 63 9 9 14 8 22 -5 5 -10 15 -22 23
-26z"/>
<path d="M3343 3845 c0 -22 2 -30 4 -17 2 12 2 30 0 40 -3 9 -5 -1 -4 -23z"/>
<path d="M3314 3745 c-12 -30 -18 -55 -14 -55 8 0 26 40 36 83 10 43 1 31 -22
-28z"/>
<path d="M936 3372 c-27 -53 -56 -152 -56 -193 0 -36 6 -48 40 -81 37 -35 70
-49 70 -30 1 28 32 146 50 186 l21 50 -48 48 c-26 26 -51 48 -55 48 -4 0 -14
-13 -22 -28z m77 -45 l27 -23 -24 -69 c-13 -39 -27 -87 -31 -107 -9 -47 -26
-48 -67 -8 -29 29 -30 34 -24 83 4 29 19 78 33 109 28 62 29 63 86 15z"/>
<path d="M1515 3150 c-3 -5 -2 -10 4 -10 5 0 13 5 16 10 3 6 2 10 -4 10 -5 0
-13 -4 -16 -10z"/>
<path d="M1560 3140 c-8 -5 -12 -12 -9 -15 4 -3 12 1 19 10 14 17 11 19 -10 5z"/>
<path d="M1511 3084 c-12 -15 -21 -31 -21 -37 0 -6 11 4 25 23 14 19 25 35 25
37 0 9 -11 0 -29 -23z"/>
<path d="M1436 3043 c-6 -14 -5 -15 5 -6 7 7 10 15 7 18 -3 3 -9 -2 -12 -12z"/>
<path d="M1467 3023 c-4 -3 -7 -11 -7 -17 0 -6 5 -5 12 2 6 6 9 14 7 17 -3 3
-9 2 -12 -2z"/>
<path d="M1519 5030 c-13 -10 -19 -19 -13 -20 7 0 22 9 35 20 13 10 19 19 13
20 -7 0 -22 -9 -35 -20z"/>
<path d="M556 4151 c-4 -7 -5 -15 -2 -18 9 -9 19 4 14 18 -4 11 -6 11 -12 0z"/>
<path d="M651 4084 c-24 -31 -61 -126 -61 -157 0 -19 38 -87 70 -124 6 -7 21
-13 34 -13 18 0 28 13 54 73 42 95 41 118 -9 183 -49 64 -63 70 -88 38z m72
-56 l30 -37 -41 -78 c-22 -42 -45 -79 -50 -81 -6 -2 -22 16 -36 40 l-25 43 19
57 c37 112 51 120 103 56z m47 -69 c0 -23 -63 -160 -72 -157 -15 5 -13 13 23
93 31 68 49 92 49 64z"/>
<path d="M540 4060 c0 -16 2 -30 4 -30 2 0 6 14 8 30 3 17 1 30 -4 30 -4 0 -8
-13 -8 -30z"/>
<path d="M3474 2469 c-29 -32 -126 -96 -175 -115 -59 -23 -65 -30 -34 -38 17
-4 46 2 86 18 60 24 173 95 164 104 -2 2 -23 -10 -47 -27 -42 -31 -68 -39 -68
-21 0 6 3 10 8 10 13 0 97 78 91 84 -3 3 -14 -3 -25 -15z"/>
<path d="M3548 2046 c-19 -24 -47 -42 -90 -57 -34 -13 -57 -24 -51 -26 6 -2
35 6 64 17 55 22 93 50 110 83 16 29 -5 19 -33 -17z"/>
<path d="M3571 2006 c-30 -31 -160 -91 -246 -113 -77 -19 -81 -21 -73 -28 12
-12 149 27 216 61 71 36 158 103 136 104 -6 0 -21 -11 -33 -24z"/>
<path d="M3353 1959 c-47 -14 -50 -29 -3 -17 22 6 40 14 40 19 0 5 -1 9 -2 8
-2 0 -17 -5 -35 -10z"/>
<path d="M3522 1922 c-43 -41 -65 -51 -164 -71 -49 -11 -89 -34 -77 -45 2 -3
49 8 104 23 146 40 190 67 183 112 -3 21 -6 20 -46 -19z"/>
</g>
</svg>
